<?xml version="1.0" encoding="UTF-8" standalone="no"?>
<svg
   xmlns:dc="http://purl.org/dc/elements/1.1/"
   xmlns:cc="http://creativecommons.org/ns#"
   xmlns:rdf="http://www.w3.org/1999/02/22-rdf-syntax-ns#"
   xmlns:svg="http://www.w3.org/2000/svg"
   xmlns="http://www.w3.org/2000/svg"
   xmlns:sodipodi="http://sodipodi.sourceforge.net/DTD/sodipodi-0.dtd"
   xmlns:inkscape="http://www.inkscape.org/namespaces/inkscape"
   version="1.0"
   width="256"
   height="256"
   viewBox="0 0 2560 2560"
   preserveAspectRatio="xMidYMid meet"
   id="svg14"
   sodipodi:docname="launch_icon.svg"
   inkscape:version="1.0.1 (1.0.1+r73)"
   inkscape:export-filename="/home/eric/Workspace/weeeklyapp/launch_icon.png"
   inkscape:export-xdpi="96"
   inkscape:export-ydpi="96">
  <metadata
     id="metadata20">
    <rdf:RDF>
      <cc:Work
         rdf:about="">
        <dc:format>image/svg+xml</dc:format>
        <dc:type
           rdf:resource="http://purl.org/dc/dcmitype/StillImage" />
        <dc:title />
      </cc:Work>
    </rdf:RDF>
  </metadata>
  <defs
     id="defs18" />
  <sodipodi:namedview
     pagecolor="#ffffff"
     bordercolor="#666666"
     borderopacity="1"
     objecttolerance="10"
     gridtolerance="10"
     guidetolerance="10"
     inkscape:pageopacity="0"
     inkscape:pageshadow="2"
     inkscape:window-width="3832"
     inkscape:window-height="2090"
     id="namedview16"
     showgrid="false"
     fit-margin-top="0"
     fit-margin-left="0"
     fit-margin-right="0"
     fit-margin-bottom="0"
     inkscape:zoom="3.8879002"
     inkscape:cx="128"
     inkscape:cy="128"
     inkscape:window-x="0"
     inkscape:window-y="62"
     inkscape:window-maximized="0"
     inkscape:current-layer="svg14"
     inkscape:document-rotation="0" />
  <rect
     style="fill:#ff6600;stroke:#ff6600;stroke-width:9.92878;stroke-dasharray:9.92878, 19.85760000000000147;stroke-opacity:0.0690469;paint-order:markers fill stroke"
     id="rect857"
     width="2550.0713"
     height="2550.0713"
     x="4.9643884"
     y="4.9643884" />
  <g
     id="g869"
     style="fill:#ffffff"
     transform="matrix(1.2087512,0,0,1.2087512,-350.05199,-282.34248)">
    <path
       style="fill:#ffffff;fill-opacity:1;stroke:#ffccaa;stroke-width:1.06143;stroke-dasharray:1.06143, 2.12287;stroke-opacity:0.0690469;paint-order:markers fill stroke"
       d="m 551.17186,1434.5245 c -12.04952,-5.9863 -30.31474,-30.5215 -70.47078,-94.6614 -23.44075,-37.441 -42.34461,-64.9936 -50.72975,-73.9392 -1.81817,-1.9396 -5.12993,-3.9702 -7.52395,-4.6132 -2.82505,-0.7587 -6.16443,-3.0347 -9.84004,-6.7067 -7.88268,-7.8748 -7.71516,-10.217 1.40658,-19.6654 8.05143,-8.34 13.09879,-10.8892 26.01097,-13.1374 24.51982,-4.2694 77.0634,-4.9275 93.13092,-1.1666 9.70487,2.2717 19.48542,7.0354 21.84818,10.6414 2.10185,3.2078 2.18215,7.3469 0.39463,20.3523 -2.59989,18.9171 0.0572,26.5787 14.3199,41.3206 9.61583,9.9375 12.00393,10.7128 18.79197,6.1002 5.71403,-3.8828 9.43046,-10.8707 10.07914,-18.9516 0.91432,-11.3907 -2.57398,-18.5558 -11.95572,-24.5572 -9.00365,-5.7595 -11.99809,-12.6499 -8.46587,-19.4805 2.29911,-4.446 9.69555,-10.3482 15.30132,-12.2102 24.83748,-8.2497 87.34937,-8.8521 114.12182,-1.0999 4.04741,1.1719 6.63934,2.8865 10.33273,6.8351 6.72935,7.1942 6.64677,9.8943 -0.63363,20.7165 -5.50226,8.179 -5.56379,8.3599 -5.56379,16.3507 0,6.9678 0.46897,9.0253 3.40731,14.9463 13.25506,26.7106 22.201,29.8699 34.14036,12.0565 6.43854,-9.6062 11.9377,-22.6825 12.57018,-29.8904 0.43923,-5.0071 0.13383,-6.1248 -2.78427,-10.1884 -9.99655,-13.92 -3.94097,-28.874 13.2784,-32.7905 29.74247,-6.7648 70.14149,-3.0163 79.94371,7.4176 5.60875,5.9703 2.01407,14.6706 -9.23853,22.36 -14.85648,10.152 -18.73529,13.5628 -25.16182,22.1256 -8.61823,11.4832 -18.90892,29.4789 -38.41309,67.1744 -8.59518,16.612 -19.18631,36.4031 -23.5358,43.9804 -24.04566,41.89 -39.82871,56.7311 -53.05711,49.8904 -6.05112,-3.1292 -18.10824,-18.3393 -36.3857,-45.9009 -14.33432,-21.6155 -24.52362,-35.2925 -30.94151,-41.5324 -4.36448,-4.2434 -5.07331,-4.5765 -7.44197,-3.4973 -4.83751,2.2041 -16.21329,18.1823 -33.7459,47.3988 -9.9842,16.6378 -22.16228,34.712 -28.07316,41.6651 -3.7324,4.3905 -9.56379,5.4155 -15.11579,2.6573 z"
       id="path890" />
    <path
       style="fill:#ffffff;fill-opacity:1;stroke:#ffccaa;stroke-width:1.06143;stroke-dasharray:1.06143, 2.12287;stroke-opacity:0.0690469;paint-order:markers fill stroke"
       d="m 938.65741,1407.1027 c -21.33512,-4.2395 -36.13047,-12.6057 -52.67374,-29.7852 -33.327,-34.6084 -41.66527,-72.8238 -24.97099,-114.4451 5.69797,-14.2059 13.71802,-25.9818 26.63514,-39.1087 20.63713,-20.9723 42.57171,-32.7742 68.88488,-37.0632 33.83618,-5.5154 63.5786,4.9329 90.1631,31.6737 8.944,8.9966 11.4424,12.2811 15.3666,20.2013 4.0891,8.2531 4.728,10.4804 5.0153,17.486 0.2757,6.7191 -0.07,8.8061 -2.1195,12.7973 -4.8531,9.4511 -12.4342,12.7399 -63.7815,27.6691 -36.7362,10.681 -48.92298,15.0051 -50.47786,17.9104 -4.20911,7.8648 19.30043,24.2424 40.01133,27.8735 14.52023,2.5456 28.16133,-2.6749 46.89473,-17.9469 6.1201,-4.9893 13.5859,-10.2341 16.5907,-11.655 5.3065,-2.5093 5.5884,-2.5334 9.827,-0.8374 8.7811,3.5135 14.8559,14.6022 13.2584,24.2017 -1.8073,10.8603 -9.3246,23.2669 -21.1444,34.8965 -25.3338,24.9262 -58.15568,37.9226 -95.1537,37.6777 -8.27632,-0.057 -18.32282,-0.7503 -22.32549,-1.5457 z m 19.63164,-141.3785 c 9.94753,-2.1999 18.2057,-5.8693 21.5585,-9.5793 3.31332,-3.6663 2.8503,-10.4348 -1.09936,-16.0735 -8.57604,-12.2428 -28.16713,-14.9923 -38.74342,-5.4372 -6.82481,6.1657 -10.37641,20.9249 -6.73145,27.9733 2.92773,5.6617 9.69513,6.5048 25.01573,3.1167 z"
       id="path892" />
    <path
       style="fill:#ffffff;fill-opacity:1;stroke:#ffccaa;stroke-width:1.06143;stroke-dasharray:1.06143, 2.12287;stroke-opacity:0.0690469;paint-order:markers fill stroke"
       d="m 1160.1108,1282.0589 c -18.4523,-3.4777 -36.9233,-11.4462 -49.5778,-21.3881 -19.4898,-15.3122 -33.3066,-45.4627 -35.7333,-77.976 -2.6957,-36.1183 7.2295,-62.5964 32.5216,-86.7604 25.4969,-24.3596 59.7678,-37.9378 92.4279,-36.6201 23.8387,0.9617 40.7795,8.7901 58.5385,27.0507 13.0113,13.3789 20.944,28.1659 20.944,39.0411 0,4.1322 -2.3923,10.4715 -5.0744,13.4465 -2.3703,2.6292 -17.3073,10.0962 -47.3678,23.6789 -35.6607,16.1132 -53.5345,26.8385 -53.5345,32.124 0,3.3786 4.2474,7.3265 11.9737,11.1294 9.8453,4.8459 21.2757,7.2731 30.9469,6.5717 14.9696,-1.0858 26.6179,-7.5531 45.7215,-25.3851 15.861,-14.8053 20.9927,-17.0483 28.4547,-12.4366 8.6136,5.3235 11.9502,16.3275 8.5242,28.1125 -9.2845,31.9373 -49.1159,67.8621 -85.8798,77.4567 -13.4884,3.5202 -39.4822,4.481 -52.8854,1.9548 z m 14.0342,-140.8169 c 14.3445,-7.194 19.2455,-11.2066 19.2455,-15.7567 0,-8.5442 -10.0447,-20.9825 -18.3804,-22.7603 -15.6472,-3.3372 -31.4416,9.7043 -31.4227,25.9456 0.01,7.3132 1.8616,12.9271 5.4519,16.5175 2.8553,2.8552 3.6018,3.0836 8.2711,2.5307 3.1694,-0.3752 9.6083,-2.8526 16.8346,-6.4768 z"
       id="path894" />
    <path
       style="fill:#ffffff;fill-opacity:1;stroke:#ffccaa;stroke-width:0.530718;stroke-dasharray:0.530718, 1.06143;stroke-opacity:0.0690469;paint-order:markers fill stroke"
       d="m 1317.4893,1120.3855 c -1.1636,-1.1636 -0.6594,-2.937 1.7438,-6.134 4.262,-5.6697 10.8266,-10.7373 24.9092,-19.2288 13.4284,-8.0969 17.9858,-10.0259 19.6814,-8.3304 0.4284,0.4284 0.9162,2.1122 1.0844,3.7423 0.2647,2.5634 0.1183,3.2836 -1.0815,5.3312 -5.2267,8.9185 -33.1189,25.2556 -43.119,25.2556 -1.4204,0 -2.8686,-0.286 -3.2183,-0.6359 z"
       id="path898" />
    <path
       style="fill:#ffffff;fill-opacity:1;stroke:#ffccaa;stroke-width:0.530718;stroke-dasharray:0.530718, 1.06143;stroke-opacity:0.0690469;paint-order:markers fill stroke"
       d="m 1297.0012,1093.9424 c -2.2715,-1.9944 -2.3503,-3.1252 -0.5806,-8.3283 4.7641,-14.0071 20.4537,-37.4506 26.6949,-39.8876 1.5874,-0.6199 5.2355,-0.034 6.2789,1.0107 0.5866,0.5865 0.726,1.4131 0.5016,2.9734 -0.4307,2.9934 -6.6273,15.229 -13.5788,26.8109 -11.0613,18.4293 -14.5668,21.5908 -19.3161,17.4209 z"
       id="path900" />
    <path
       style="fill:#ffffff;fill-opacity:1;stroke:#ffccaa;stroke-width:0.530718;stroke-dasharray:0.530718, 1.06143;stroke-opacity:0.0690469;paint-order:markers fill stroke"
       d="m 1362.8522,1158.0463 c -6.8138,-0.5107 -23.2946,-2.8662 -27.7178,-3.9614 -11.466,-2.839 -12.4679,-6.474 -2.5205,-9.1444 5.7842,-1.5527 12.2649,-2.1852 22.3911,-2.1852 14.7173,0 22.419,1.2964 25.3978,4.2752 1.3815,1.3814 1.6263,2.0252 1.6263,4.2757 0,2.2046 -0.2528,2.9023 -1.5059,4.1553 -2.5201,2.5201 -7.9465,3.3138 -17.671,2.5848 z"
       id="path902" />
    <path
       style="fill:#ffffff;fill-opacity:1;stroke:#ffccaa;stroke-width:0.530718;stroke-dasharray:0.530718, 1.06143;stroke-opacity:0.0690469;paint-order:markers fill stroke"
       d="m 1374.3457,1444.937 c -27.8484,-1.913 -53.5777,-11.4777 -72.9917,-27.1346 -22.7133,-18.3177 -39.5755,-48.2232 -42.8031,-75.9126 -1.0041,-8.6136 -0.4107,-22.906 1.2847,-30.942 8.5,-40.2918 41.8755,-73.8792 84.1896,-84.7241 11.4319,-2.93 17.7315,-3.7037 30.0556,-3.6918 19.408,0.017 35.6891,3.7396 53.2533,12.1701 33.6405,16.1468 58.4453,50.3717 60.586,83.5946 0.8934,13.8648 -1.4121,25.2786 -7.5025,37.1423 -8.489,16.5361 -20.869,17.4679 -56.4071,4.2461 -5.1665,-1.9221 -12.6126,-4.6937 -16.547,-6.1591 -23.8823,-8.8948 -48.4188,-16.842 -51.9985,-16.842 -5.059,0 -7.4274,3.2939 -7.4015,10.2939 0.04,10.3752 6.1528,22.3721 16.4286,32.2351 9.7733,9.3806 15.819,12.4832 27.6298,14.179 2.172,0.3118 11.8178,0.7905 21.4353,1.0635 19.0105,0.5399 23.4186,1.0934 28.3487,3.561 4.3386,2.1716 5.9344,4.7615 6.2456,10.1364 0.8361,14.4438 -12.5279,29.2571 -30.1555,33.4259 -12.1282,2.8682 -30.3622,4.2711 -43.6503,3.3583 z m 32.2459,-139.0295 c 2.9765,-0.8265 6.4538,-4.2697 7.7143,-7.6386 0.579,-1.5476 1.3237,-4.8497 1.6548,-7.3379 1.4545,-10.9296 -2.5999,-20.7754 -10.3077,-25.0318 -9.7979,-5.4106 -21.0862,-2.6171 -31.9692,7.9112 -6.9251,6.6993 -8.5935,9.7237 -7.5343,13.657 0.9955,3.6972 7.5662,8.4531 19.6455,14.2198 8.8417,4.221 15.7472,5.6224 20.7966,4.2203 z"
       id="path904" />
    <path
       style="fill:#ffffff;fill-opacity:1;stroke:#ffccaa;stroke-width:0.530718;stroke-dasharray:0.530718, 1.06143;stroke-opacity:0.0690469;paint-order:markers fill stroke"
       d="m 1554.7711,1438.0769 c -0.7286,-0.1532 -4.0669,-1.1068 -7.4184,-2.1193 -3.3516,-1.0126 -9.805,-2.7535 -14.341,-3.8689 -12.093,-2.9734 -17.1528,-5.8856 -19.8679,-11.435 -1.2749,-2.6059 -1.4017,-3.3589 -1.1814,-7.015 0.3735,-6.2006 2.5106,-10.0291 11.1916,-20.0508 9.0307,-10.4255 10.6391,-19.4261 12.0151,-67.2368 1.01,-35.0902 2.563,-120.2686 2.1998,-120.649 -0.1921,-0.2007 -5.1617,-2.8604 -11.0441,-5.9096 -15.7003,-8.1387 -19.4737,-10.9695 -20.8804,-15.6647 -0.8868,-2.9598 0.2985,-5.8646 4.1136,-10.0803 3.287,-3.6323 13.8401,-11.7527 19.0859,-14.6864 14.0503,-7.8574 51.8738,-19.7067 77.6871,-24.338 9.1097,-1.6343 19.621,-2.2098 21.542,-1.1792 1.7191,0.9222 2.4576,3.6104 3.4508,12.5609 1.4496,13.0652 1.8817,23.2593 2.3944,56.4953 0.6914,44.8168 1.9702,66.6002 4.2641,72.6335 0.4358,1.1467 0.7963,1.2734 3.6207,1.2734 3.7362,0 8.8197,-1.4783 14.7012,-4.2754 7.4646,-3.5497 11.5146,-7.6049 13.0122,-13.0287 0.3019,-1.0928 0.5836,-6.767 0.6265,-12.6094 0.077,-10.5354 0.09,-10.6499 1.6193,-13.961 5.0969,-11.0381 18.9438,-15.0149 55.0285,-15.8037 14.9484,-0.3266 29.211,0.2499 35.6633,1.4417 9.1495,1.6902 15.5515,4.9792 21.1605,10.871 6.4309,6.7552 8.5901,12.6523 6.3564,17.3597 -2.4397,5.1412 -10.9018,10.1981 -26.7557,15.989 -28.5708,10.436 -33.785,17.7922 -25.1807,35.5251 7.143,14.7214 36.2321,52.7921 55.3767,72.475 7.7187,7.9357 12.7172,12.1915 19.3481,16.4732 5.5277,3.5693 11.0321,8.9482 13.106,12.8071 4.5897,8.5402 3.5509,16.1759 -3.05,22.4187 -6.748,6.382 -17.2031,8.8491 -45.0192,10.6232 -10.9042,0.6953 -41.0673,0.6878 -49.2882,-0.012 -14.158,-1.206 -16.4348,-1.9777 -22.3507,-7.5757 -9.7537,-9.2296 -19.7826,-21.4143 -44.1194,-53.6031 -9.6951,-12.8232 -18.037,-23.7428 -18.5376,-24.2658 -0.8628,-0.9015 -0.9606,-0.3878 -1.8787,9.8679 -1.8547,20.7194 -0.2848,28.4 7.7846,38.0902 4.6967,5.6398 6.3128,8.7776 6.6436,12.8982 0.4101,5.1075 -1.7018,8.5794 -8.349,13.7262 -4.0825,3.161 -6.5182,4.2915 -13.6984,6.3581 -11.3396,3.264 -29.4908,6.4572 -48.298,8.4968 -7.758,0.8412 -28.2855,1.4986 -30.7332,0.9842 z"
       id="path906" />
    <path
       style="fill:#ffffff;fill-opacity:1;stroke:#ffccaa;stroke-width:0.530718;stroke-dasharray:0.530718, 1.06143;stroke-opacity:0.0690469;paint-order:markers fill stroke"
       d="m 1899.0468,1436.8044 c -11.0795,-0.8677 -19.3554,-3.063 -28.0229,-7.4331 -6.8454,-3.4515 -13.6713,-8.6803 -16.6769,-12.7747 -2.4247,-3.3031 -3.0051,-5.373 -2.1067,-7.5138 1.152,-2.7449 6.7261,-9.7114 13.8216,-17.2742 10.764,-11.4729 12.3302,-15.9273 13.5279,-38.4749 0.2774,-5.223 0.5101,-36.7466 0.517,-70.0524 l 0.012,-60.556 -11.736,-13.6276 c -6.4548,-7.4953 -13.1333,-15.7433 -14.8412,-18.3289 -3.728,-5.6442 -5.5164,-10.8385 -5.0109,-14.5534 1.3303,-9.7761 14.4565,-20.3991 33.1778,-26.8508 29.5771,-10.1928 76.61,-17.7804 88.4391,-14.2676 2.4977,0.7418 2.8977,1.0713 3.8138,3.1424 3.74,8.4549 4.8121,44.0948 3.6591,121.6405 -0.3786,25.4847 -0.7032,59.4503 -0.7207,75.4793 -0.052,48.3608 0.783,52.6178 11.5467,58.8 8.9824,5.1591 13.0135,14.7593 9.7972,23.3319 -1.4526,3.8717 -6.2943,8.9625 -10.2896,10.8192 -6.8423,3.1798 -24.4953,6.1847 -46.8987,7.9833 -9.6331,0.7733 -34.7569,1.0787 -42.0093,0.5107 z"
       id="path908" />
    <path
       style="fill:#ffffff;fill-opacity:1;stroke:#ffccaa;stroke-width:0.530718;stroke-dasharray:0.530718, 1.06143;stroke-opacity:0.0690469;paint-order:markers fill stroke"
       d="m 2072.948,1538.8262 c -20.0727,-2.7399 -37.0546,-10.9561 -46.2104,-22.3578 -3.6703,-4.5706 -5.7543,-8.3242 -7.5873,-13.666 -1.2793,-3.7281 -1.4558,-5.0375 -1.4642,-10.8627 -0.01,-4.7395 0.2584,-7.5944 0.9325,-10.0371 3.7987,-13.7645 13.7507,-24.2577 26.5529,-27.9968 7.7772,-2.2714 19.9029,-1.4723 26.218,1.7279 6.1247,3.1035 9.4306,7.4712 16.9083,22.3381 7.1582,14.2317 10.4512,18.2005 15.1051,18.205 3.8028,0.01 7.3196,-3.3983 11.191,-10.8256 1.7056,-3.2722 1.8537,-3.9262 1.8537,-8.1869 0,-10.9786 -5.5434,-25.3828 -31.4274,-81.6634 -17.9316,-38.9892 -32.5072,-67.1662 -42.4857,-82.1319 -6.3449,-9.5161 -9.4965,-13.0676 -16.7497,-18.8747 -7.2814,-5.8298 -11.6467,-10.758 -13.1954,-14.897 -1.9048,-5.0911 -1.1481,-8.0961 3.0984,-12.3035 6.6882,-6.6267 20.715,-11.5655 43.5845,-15.3461 18.9088,-3.1259 23.5004,-3.491 43.6632,-3.4716 16.4933,0.017 19.367,0.1476 25.9643,1.1898 16.4372,2.5969 27.4726,6.884 32.5405,12.6413 2.6795,3.0442 3.4441,5.6933 3.0377,10.5257 -0.4067,4.8387 -1.4669,8.3105 -4.6107,15.1017 -1.4165,3.06 -2.8541,6.8653 -3.1946,8.4561 -0.8276,3.8663 -0.3288,9.0419 1.3607,14.126 1.7828,5.3638 6.9763,16.1634 9.6916,20.1531 2.6012,3.8219 7.4369,8.4532 9.9015,9.4831 2.4248,1.0131 6.3108,0.9789 8.5321,-0.075 6.8539,-3.2523 13.5155,-18.6551 13.4621,-31.1269 -0.029,-6.0603 -1.0358,-11.0878 -4.1242,-20.5293 -3.4163,-10.4441 -4.4973,-15.8181 -4.2551,-21.1529 0.1722,-3.7855 0.3374,-4.3291 1.7768,-5.8397 1.9895,-2.0878 8.4969,-5.233 15.2228,-7.3576 17.9142,-5.6588 43.1921,-7.5265 56.0708,-4.143 16.0763,4.2238 26.1141,12.7103 26.1141,22.0784 0,7.6687 -6.0859,13.6691 -19.1301,18.8612 -18.0754,7.1947 -22.9546,15.7828 -51.6179,90.856 -26.2686,68.801 -38.9252,96.6339 -52.8267,116.1704 -14.3198,20.1245 -34.1186,33.79 -56.4973,38.9955 -11.4099,2.654 -26.446,3.4324 -37.4059,1.9364 z"
       id="path910" />
  </g>
</svg>
