<?xml version="1.0" encoding="UTF-8" standalone="no"?>
<svg
   xmlns:dc="http://purl.org/dc/elements/1.1/"
   xmlns:cc="http://creativecommons.org/ns#"
   xmlns:rdf="http://www.w3.org/1999/02/22-rdf-syntax-ns#"
   xmlns:svg="http://www.w3.org/2000/svg"
   xmlns="http://www.w3.org/2000/svg"
   xmlns:sodipodi="http://sodipodi.sourceforge.net/DTD/sodipodi-0.dtd"
   xmlns:inkscape="http://www.inkscape.org/namespaces/inkscape"
   version="1.0"
   width="838.44299"
   height="220.09644"
   viewBox="0 0 8384.4299 2200.9644"
   preserveAspectRatio="xMidYMid meet"
   id="svg14"
   sodipodi:docname="weeekly.svg"
   inkscape:version="1.0.1 (1.0.1+r73)"
   inkscape:export-filename="/home/eric/Workspace/weeeklyapp/assets/images/logo/weeekly.png"
   inkscape:export-xdpi="96"
   inkscape:export-ydpi="96">
  <metadata
     id="metadata20">
    <rdf:RDF>
      <cc:Work
         rdf:about="">
        <dc:format>image/svg+xml</dc:format>
        <dc:type
           rdf:resource="http://purl.org/dc/dcmitype/StillImage" />
        <dc:title></dc:title>
      </cc:Work>
    </rdf:RDF>
  </metadata>
  <defs
     id="defs18" />
  <sodipodi:namedview
     pagecolor="#ffffff"
     bordercolor="#666666"
     borderopacity="1"
     objecttolerance="10"
     gridtolerance="10"
     guidetolerance="10"
     inkscape:pageopacity="0"
     inkscape:pageshadow="2"
     inkscape:window-width="3832"
     inkscape:window-height="2090"
     id="namedview16"
     showgrid="false"
     fit-margin-top="0"
     fit-margin-left="0"
     fit-margin-right="0"
     fit-margin-bottom="0"
     inkscape:zoom="0.98430029"
     inkscape:cx="378.5903"
     inkscape:cy="373.1928"
     inkscape:window-x="0"
     inkscape:window-y="62"
     inkscape:window-maximized="0"
     inkscape:current-layer="svg14"
     inkscape:document-rotation="0" />
  <path
     style="fill:#000000;fill-opacity:1;stroke:#ffccaa;stroke-width:4.72302;stroke-dasharray:4.72302, 9.44606;stroke-opacity:0.0690469;paint-order:markers fill stroke"
     d="m 644.19073,1732.326 c -53.6162,-26.6369 -134.8902,-135.8101 -313.5707,-421.2104 -104.3033,-166.6001 -188.4189,-289.1995 -225.7299,-329.00408 -8.090295,-8.63082 -22.826495,-17.66627 -33.478995,-20.52717 -12.5705,-3.37624 -27.4296,-13.50368 -43.7849,-29.84281 -35.0752001,-35.04013 -34.3297001,-45.46226 6.2589,-87.50452 35.8261,-37.10959 58.2851,-48.45295 115.739895,-58.45671 109.1047,-18.99696 342.9056,-21.92556 414.4005,-5.19071 43.1834,10.1081 86.7034,31.30482 97.2169,47.35028 9.3525,14.274 9.7098,32.69125 1.7559,90.56061 -11.5685,84.17461 0.2545,118.26651 63.7187,183.86281 42.7871,44.2186 53.4134,47.6681 83.6178,27.1437 25.4255,-17.2771 41.9623,-48.371 44.8487,-84.328 4.0684,-50.68481 -11.4533,-82.56679 -53.1988,-109.27105 -40.0632,-25.6278 -53.3874,-56.28801 -37.6703,-86.68177 10.2303,-19.78306 43.1419,-46.04605 68.0857,-54.33102 110.5182,-36.70827 388.67457,-39.389 507.80277,-4.89423 18.0096,5.21488 29.5428,12.84405 45.9771,30.41386 29.9433,32.01178 29.5759,44.02621 -2.8194,92.18142 -24.4832,36.39348 -24.757,37.19841 -24.757,72.75463 0,31.00476 2.0868,40.15956 15.1614,66.50606 58.9804,118.8533 98.7868,132.9108 151.9128,53.6475 28.6494,-42.7444 53.1187,-100.9296 55.9331,-133.00194 1.9544,-22.28031 0.5955,-27.25368 -12.3891,-45.33501 -44.4812,-61.93933 -17.5359,-128.47972 59.0843,-145.90652 132.3438,-30.10085 312.1056,-13.42147 355.7221,33.00604 24.9569,26.56557 8.9619,65.27867 -41.1083,99.49376 -66.1063,45.17317 -83.3656,60.34982 -111.9615,98.45167 -38.3481,51.0963 -84.1382,131.1706 -170.925,298.9032 -38.2456,73.9171 -85.3725,161.981 -104.7262,195.6975 -106.995,186.3959 -177.2241,252.4337 -236.086,221.9951 -26.9254,-13.9238 -80.5754,-81.6035 -161.9038,-204.2433 -63.7828,-96.1819 -109.1217,-157.0397 -137.6791,-184.8049 -19.4204,-18.8817 -22.57447,-20.364 -33.11417,-15.5619 -21.5252,9.8075 -72.1436,80.9052 -150.1577,210.9085 -44.4262,74.0324 -98.6145,154.4564 -124.9159,185.3953 -16.6078,19.5359 -42.5555,24.0973 -67.26,11.8241 z"
     id="path890" />
  <path
     style="fill:#000000;fill-opacity:1;stroke:#ffccaa;stroke-width:4.72302;stroke-dasharray:4.72302, 9.44606;stroke-opacity:0.0690469;paint-order:markers fill stroke"
     d="m 2368.3682,1610.3084 c -94.9339,-18.8644 -160.7681,-56.0913 -234.3801,-132.5339 -148.2936,-153.9956 -185.396,-324.0409 -111.1122,-509.24147 25.3539,-63.21098 61.0405,-115.60996 118.5172,-174.02036 91.8282,-93.31947 189.4296,-145.83373 306.514,-164.91849 150.5595,-24.54165 282.9033,21.94999 401.1947,140.93721 39.7977,40.03183 50.9148,54.64683 68.376,89.88851 18.1953,36.7238 21.0382,46.63467 22.3167,77.80741 1.2266,29.89752 -0.3105,39.18364 -9.4312,56.9433 -21.5945,42.05399 -55.3278,56.68779 -283.8059,123.11799 -163.4633,47.5269 -217.6903,66.7677 -224.6089,79.6952 -18.729,34.9956 85.8801,107.8703 178.0366,124.0272 64.6098,11.3274 125.308,-11.9022 208.6652,-79.8572 27.2326,-22.2009 60.4529,-45.5384 73.8232,-51.8608 23.6123,-11.166 24.8664,-11.2728 43.727,-3.7264 39.0729,15.634 66.1032,64.9748 58.9952,107.6894 -8.042,48.3247 -41.4913,103.5296 -94.0855,155.2774 -112.7269,110.9129 -258.7729,168.7426 -423.4012,167.6529 -36.8269,-0.2545 -81.5302,-3.3386 -99.3408,-6.8779 z m 87.3541,-629.08579 c 44.2631,-9.78847 81.0091,-26.1164 95.9279,-42.62451 14.743,-16.31369 12.6829,-46.43159 -4.8919,-71.52141 -38.1604,-54.47658 -125.3338,-66.71064 -172.3947,-24.19377 -30.3681,27.43539 -46.1715,93.10824 -29.9528,124.47159 13.0276,25.19237 43.1401,28.94397 111.3115,13.8681 z"
     id="path892" />
  <path
     style="fill:#000000;fill-opacity:1;stroke:#ffccaa;stroke-width:4.72302;stroke-dasharray:4.72302, 9.44606;stroke-opacity:0.0690469;paint-order:markers fill stroke"
     d="m 3353.7598,1053.9065 c -82.1065,-15.4747 -164.2961,-50.9316 -220.6042,-95.16983 -86.7232,-68.13371 -148.2032,-202.29325 -159.001,-346.96653 -11.9948,-160.71391 32.1688,-278.53254 144.7102,-386.05372 113.4522,-108.39178 265.9458,-168.810047 411.2721,-162.946997 106.0739,4.2794 181.4548,39.112887 260.4761,120.366257 57.8961,59.53191 93.1937,125.32894 93.1937,173.71955 0,18.38696 -10.6448,46.59471 -22.579,59.83245 -10.5471,11.69913 -77.0119,44.92453 -210.7707,105.36291 -158.678,71.69827 -238.2103,119.42239 -238.2103,142.94076 0,15.03363 18.8998,32.60065 53.279,49.52204 43.8081,21.56242 94.6698,32.36297 137.703,29.24172 66.6098,-4.83137 118.4406,-33.6084 203.445,-112.95518 70.576,-65.87849 93.4106,-75.85858 126.6133,-55.33827 38.3279,23.68786 53.1744,72.65182 37.9301,125.09101 -41.3126,142.11012 -218.5487,301.96283 -382.1354,344.65533 -60.0187,15.6637 -175.6821,19.939 -235.3219,8.6985 z m 62.4475,-626.58674 c 63.8281,-32.01101 85.6358,-49.8656 85.6358,-70.11233 0,-38.01861 -44.6957,-93.36451 -81.7868,-101.27514 -69.6242,-14.84937 -139.9042,43.18081 -139.82,115.44887 0.026,32.54161 8.2832,57.52123 24.2592,73.49747 12.7049,12.7046 16.0266,13.721 36.8032,11.2604 14.103,-1.66941 42.7538,-12.69314 74.9086,-28.81927 z"
     id="path894" />
  <path
     style="fill:#000000;fill-opacity:1;stroke:#ffccaa;stroke-width:2.36151;stroke-dasharray:2.36151, 4.72302;stroke-opacity:0.0690469;paint-order:markers fill stroke"
     d="m 4054.0396,334.51536 c -5.1775,-5.17747 -2.9339,-13.0685 7.7595,-27.29415 18.9644,-25.22825 48.1748,-47.7773 110.8379,-85.56152 59.7515,-36.02854 80.0303,-44.61177 87.575,-37.06734 1.9061,1.90608 4.0765,9.39859 4.825,16.65189 1.1782,11.40622 0.5268,14.61093 -4.8121,23.72171 -23.2567,39.68445 -147.3677,112.37876 -191.8647,112.37876 -6.3201,0 -12.7644,-1.27241 -14.3206,-2.82935 z"
     id="path898" />
  <path
     style="fill:#000000;fill-opacity:1;stroke:#ffccaa;stroke-width:2.36151;stroke-dasharray:2.36151, 4.72302;stroke-opacity:0.0690469;paint-order:markers fill stroke"
     d="m 3962.8749,216.85275 c -10.1074,-8.87436 -10.458,-13.90601 -2.5836,-37.05819 21.1988,-62.32665 91.0121,-166.642107 118.7829,-177.4859175 7.0637,-2.75834996 23.2967,-0.15269 27.9393,4.49699 2.61,2.60998 3.2306,6.2880405 2.2318,13.2306105 -1.9163,13.31994 -29.4893,67.76421 -60.4208,119.299467 -49.2192,82.0041 -64.8173,96.07171 -85.9501,77.51704 z"
     id="path900" />
  <path
     style="fill:#000000;fill-opacity:1;stroke:#ffccaa;stroke-width:2.36151;stroke-dasharray:2.36151, 4.72302;stroke-opacity:0.0690469;paint-order:markers fill stroke"
     d="m 4255.8893,502.09321 c -30.3192,-2.27254 -103.653,-12.75371 -123.3348,-17.62708 -51.0194,-12.63283 -55.4777,-28.80731 -11.2154,-40.68941 25.7378,-6.90924 54.5746,-9.72358 99.6327,-9.72358 65.4871,0 99.7567,5.76864 113.0117,19.02343 6.1468,6.1468 7.2363,9.01127 7.2363,19.02547 0,9.80933 -1.1249,12.91403 -6.7008,18.48977 -11.2134,11.21307 -35.359,14.74505 -78.6297,11.5014 z"
     id="path902" />
  <path
     style="fill:#000000;fill-opacity:1;stroke:#ffccaa;stroke-width:2.36151;stroke-dasharray:2.36151, 4.72302;stroke-opacity:0.0690469;paint-order:markers fill stroke"
     d="m 4307.0316,1778.6578 c -123.916,-8.5117 -238.4027,-51.0719 -324.788,-120.7393 -101.0667,-81.5079 -176.0974,-214.577 -190.4592,-337.785 -4.4677,-38.3276 -1.8272,-101.9241 5.7162,-137.6816 37.8224,-179.2844 186.3318,-328.73663 374.6147,-376.99286 50.8682,-13.03721 78.8991,-16.48038 133.7373,-16.42719 86.3589,0.0763 158.8043,16.63968 236.9588,54.15263 149.6887,71.84791 260.0616,224.13692 269.5869,371.96732 3.9753,61.6937 -6.2834,112.4808 -33.3837,165.2704 -37.773,73.5797 -92.8596,77.7265 -250.992,18.8936 -22.9891,-8.5529 -56.1218,-20.8854 -73.6285,-27.4058 -106.2682,-39.5789 -215.4468,-74.9412 -231.3754,-74.9412 -22.5109,0 -33.0494,14.6568 -32.9338,45.8046 0.1781,46.1659 27.3776,99.5479 73.1012,143.4347 43.4877,41.7407 70.3892,55.5459 122.9434,63.0921 9.6646,1.3869 52.585,3.5172 95.3793,4.7321 84.5907,2.4024 104.205,4.8653 126.1423,15.8452 19.3054,9.6628 26.406,21.1868 27.7906,45.1035 3.7206,64.2698 -55.7446,130.1842 -134.1816,148.7337 -53.9664,12.7624 -135.1014,19.0046 -194.2285,14.9431 z m 143.4831,-618.6333 c 13.2444,-3.6776 28.717,-18.9985 34.3255,-33.9891 2.5767,-6.8864 5.8903,-21.5795 7.3635,-32.6511 6.4721,-48.6329 -11.5685,-92.4435 -45.8656,-111.38297 -43.5971,-24.07519 -93.8264,-11.64518 -142.2521,35.20227 -30.8142,29.8097 -38.238,43.2668 -33.5252,60.7689 4.4298,16.4511 33.6672,37.6135 87.416,63.2731 39.3426,18.7819 70.0698,25.0175 92.5379,18.7789 z"
     id="path904" />
  <path
     style="fill:#000000;fill-opacity:1;stroke:#ffccaa;stroke-width:2.36151;stroke-dasharray:2.36151, 4.72302;stroke-opacity:0.0690469;paint-order:markers fill stroke"
     d="m 5109.8622,1748.133 c -3.2419,-0.6821 -18.0961,-4.9251 -33.0091,-9.4304 -14.9133,-4.5054 -43.629,-12.2522 -63.8129,-17.2151 -53.8095,-13.2309 -76.3237,-26.1889 -88.4048,-50.8818 -5.673,-11.5952 -6.2374,-14.9458 -5.2569,-31.2144 1.6618,-27.5904 11.1713,-44.6258 49.7987,-89.2192 40.1835,-46.3896 47.34,-86.4393 53.4629,-299.1804 4.494,-156.1395 11.4045,-535.15397 9.7885,-536.8468 -0.8551,-0.89324 -22.9679,-12.72775 -49.1424,-26.29581 -69.8609,-36.21432 -86.6514,-48.8105 -92.9107,-69.7021 -3.9461,-13.1703 1.3284,-26.09579 18.3042,-44.8543 14.626,-16.16227 61.5836,-52.29541 84.9256,-65.34915 62.5188,-34.96252 230.8206,-87.68825 345.6811,-108.29559 40.5347,-7.27238 87.3063,-9.83274 95.8544,-5.2472 7.6493,4.1033 10.9352,16.06505 15.3546,55.89177 6.4506,58.13555 8.373,103.49602 10.6544,251.38471 3.0765,199.41937 8.7668,296.34792 18.9736,323.19417 1.9392,5.1022 3.5434,5.6661 16.1111,5.6661 16.6247,0 39.2445,-6.5781 65.4153,-19.0239 33.215,-15.79534 51.236,-33.83952 57.8997,-57.97349 1.3436,-4.86242 2.597,-30.11078 2.7876,-56.10757 0.3435,-46.87897 0.4021,-47.38845 7.2057,-62.12179 22.6791,-49.11588 84.2932,-66.81091 244.8577,-70.321 66.5155,-1.4531 129.9786,1.11209 158.6895,6.41528 40.7121,7.52076 69.1987,22.15536 94.157,48.37203 28.6149,30.05835 38.2229,56.29869 28.2836,77.24474 -10.8558,22.87657 -48.5092,45.37828 -119.0534,71.14553 -127.1307,46.43647 -150.332,79.16887 -112.0459,158.07437 31.7842,65.5054 161.2205,234.9069 246.4075,322.4891 34.3456,35.3111 56.587,54.2478 86.0926,73.2999 24.5961,15.8821 49.0889,39.8166 58.317,56.9874 20.4226,38.0008 15.8001,71.9771 -13.5714,99.7553 -30.0262,28.3976 -76.5482,39.3753 -200.3199,47.2693 -48.5202,3.0943 -182.7355,3.0607 -219.3157,-0.051 -62.9983,-5.3663 -73.1293,-8.8 -99.4531,-33.7094 -43.4004,-41.0683 -88.0257,-95.2861 -196.3159,-238.5154 -43.1401,-57.0585 -80.2586,-105.6471 -82.4861,-107.9743 -3.8391,-4.0112 -4.274,-1.7254 -8.3593,43.9089 -8.2526,92.1941 -1.2673,126.3702 34.6388,169.4882 20.8982,25.0952 28.09,39.0574 29.5616,57.3927 1.8247,22.7267 -7.5724,38.1754 -37.1503,61.0769 -18.1658,14.065 -29.0037,19.0957 -60.9529,28.2914 -50.4578,14.5234 -131.2241,28.732 -214.9096,37.8074 -34.5207,3.7435 -125.8605,6.6688 -136.7524,4.3794 z"
     id="path906" />
  <path
     style="fill:#000000;fill-opacity:1;stroke:#ffccaa;stroke-width:2.36151;stroke-dasharray:2.36151, 4.72302;stroke-opacity:0.0690469;paint-order:markers fill stroke"
     d="m 6641.771,1742.4707 c -49.3004,-3.861 -86.1252,-13.6291 -124.6928,-33.075 -30.4591,-15.3579 -60.8325,-38.624 -74.2059,-56.8425 -10.7894,-14.6977 -13.3716,-23.9082 -9.3742,-33.4338 5.1258,-12.214 29.9286,-43.2124 61.5014,-76.8646 47.8961,-51.0504 54.8652,-70.8709 60.1943,-171.2001 1.2343,-23.2405 2.27,-163.5095 2.3005,-311.7089 l 0.051,-269.45328 -52.2211,-60.63841 c -28.7215,-33.35137 -58.4386,-70.05201 -66.038,-81.55722 -16.5885,-25.11501 -24.5467,-48.22774 -22.2974,-64.75773 5.9196,-43.49994 64.3267,-90.76878 147.6299,-119.47659 131.6081,-45.35436 340.8885,-79.11673 393.5236,-63.48583 11.1143,3.30066 12.8937,4.76674 16.97,13.98211 16.642,37.62161 21.4125,196.20677 16.2821,541.25856 -1.6846,113.39799 -3.1291,264.53369 -3.2072,335.85709 -0.2291,215.1889 3.4844,234.1309 51.3792,261.6399 39.9685,22.9559 57.9058,65.6736 43.5941,103.8189 -6.4636,17.2273 -28.0074,39.8799 -45.7854,48.1417 -30.446,14.1491 -108.9957,27.5199 -208.6829,35.5226 -42.8639,3.4409 -154.6564,4.8004 -186.9267,2.2726 z"
     id="path908" />
  <path
     style="fill:#000000;fill-opacity:1;stroke:#ffccaa;stroke-width:2.36151;stroke-dasharray:2.36151, 4.72302;stroke-opacity:0.0690469;paint-order:markers fill stroke"
     d="m 7415.5715,2196.4327 c -89.3167,-12.1916 -164.88,-48.751 -205.6204,-99.4846 -16.3317,-20.3376 -25.6046,-37.0399 -33.761,-60.8092 -5.6923,-16.5888 -6.4777,-22.4152 -6.5153,-48.3349 -0.025,-21.0896 1.1502,-33.7929 4.1493,-44.6619 16.9028,-61.2471 61.1861,-107.9383 118.1515,-124.5759 34.606,-10.1071 88.5606,-6.5514 116.6612,7.6882 27.2525,13.8098 41.9626,33.2442 75.2359,99.397 31.8514,63.3263 46.5044,80.9862 67.2122,81.0061 16.9214,0.015 32.5699,-15.1212 49.7964,-48.1703 7.5892,-14.56 8.2481,-17.47 8.2481,-36.4288 0,-48.851 -24.6659,-112.9445 -139.8409,-363.3738 -79.7896,-173.4888 -144.6458,-298.8669 -189.0466,-365.4589 -28.2327,-42.3433 -42.2566,-58.1462 -74.5307,-83.986 -32.3999,-25.9406 -51.8239,-47.8694 -58.7148,-66.2864 -8.4758,-22.6539 -5.1087,-36.0248 13.7867,-54.74639 29.7603,-29.48653 92.1745,-51.46248 193.9357,-68.28513 84.1382,-13.90906 104.569,-15.53343 194.2865,-15.44716 73.3895,0.0763 86.1766,0.65656 115.5323,5.29428 73.1397,11.55509 122.2436,30.63119 144.7939,56.24932 11.9231,13.54566 15.325,25.3331 13.5167,46.83598 -1.8094,21.5303 -6.527,36.9785 -20.5157,67.1972 -6.3031,13.6162 -12.7001,30.5482 -14.215,37.6267 -3.6824,17.2036 -1.4633,40.2334 6.0549,62.856 7.9323,23.8667 31.0417,71.9214 43.1241,89.6742 11.5742,17.0059 33.0915,37.614 44.058,42.1962 10.7896,4.5082 28.081,4.356 37.9649,-0.3333 30.4976,-14.472 60.1394,-83.0088 59.902,-138.5039 -0.1273,-26.9666 -4.6093,-49.3373 -18.3514,-91.3485 -15.2016,-46.4728 -20.0116,-70.3851 -18.9336,-94.12309 0.766,-16.84429 1.5015,-19.26341 7.9058,-25.98458 8.8527,-9.29019 37.8087,-23.28527 67.7367,-32.73909 79.7117,-25.17965 192.1898,-33.49033 249.4955,-18.43455 71.5341,18.79413 116.1988,56.55622 116.1988,98.24091 0,34.1232 -27.0804,60.8229 -85.1226,83.926 -80.4291,32.0138 -102.1396,70.2281 -229.6818,404.2781 -116.8862,306.1409 -173.2034,429.9872 -235.0603,516.9181 -63.7182,89.5473 -151.8161,150.3539 -251.3939,173.5165 -50.7698,11.8096 -117.6753,15.2731 -166.4431,8.6163 z"
     id="path910" />
</svg>
